<?xml version="1.0" standalone="no"?>
<!DOCTYPE svg PUBLIC "-//W3C//DTD SVG 20010904//EN"
 "http://www.w3.org/TR/2001/REC-SVG-20010904/DTD/svg10.dtd">
<svg version="1.0" xmlns="http://www.w3.org/2000/svg"
 width="2000.000000pt" height="2000.000000pt" viewBox="0 0 2000.000000 2000.000000"
 preserveAspectRatio="xMidYMid meet">

<g transform="translate(0.000000,2000.000000) scale(0.100000,-0.100000)"
fill="#000000" stroke="none">
<path d="M9880 13699 c-107 -72 -209 -134 -290 -177 -24 -13 -57 -32 -71 -43
-15 -10 -34 -19 -42 -19 -9 0 -17 -4 -19 -9 -3 -8 -148 -81 -161 -81 -3 0 -48
-20 -99 -44 -51 -24 -133 -60 -183 -80 -49 -20 -103 -43 -120 -50 -16 -8 -50
-19 -75 -26 -25 -7 -73 -25 -107 -40 -34 -16 -75 -31 -92 -35 -17 -4 -33 -11
-36 -16 -4 -5 -17 -9 -30 -9 -29 0 -146 -29 -160 -40 -5 -4 -23 -10 -40 -13
-57 -11 -210 -48 -240 -58 -16 -6 -43 -12 -60 -13 -16 -2 -97 -16 -180 -30
-270 -48 -534 -76 -702 -76 -162 0 -143 172 -143 -1289 0 -1123 -2 -1251 -16
-1265 -11 -12 -36 -16 -93 -16 -43 0 -106 -3 -140 -6 l-61 -7 0 -48 c0 -28 6
-53 14 -62 10 -10 52 -16 137 -20 91 -5 127 -11 139 -22 13 -13 16 -76 20
-428 4 -284 10 -423 18 -447 7 -19 12 -49 12 -67 0 -89 167 -531 239 -632 12
-16 21 -36 21 -44 0 -9 4 -17 9 -19 5 -1 20 -26 34 -55 15 -28 48 -81 74 -118
27 -37 53 -75 58 -84 15 -26 118 -152 201 -247 39 -44 73 -85 75 -90 7 -17
254 -249 394 -369 122 -105 305 -247 455 -354 108 -76 220 -151 225 -151 4 0
25 -15 48 -34 23 -19 96 -67 162 -106 66 -40 122 -76 125 -80 3 -3 12 -10 20
-14 8 -4 31 -17 51 -29 20 -12 58 -35 85 -51 27 -16 76 -46 109 -66 127 -79
237 -141 351 -201 65 -33 131 -70 146 -80 14 -11 38 -19 53 -19 39 0 282 126
293 152 2 5 7 8 12 8 13 0 91 38 125 60 17 11 53 31 80 46 28 14 57 32 65 39
8 7 42 27 75 44 32 18 71 41 86 52 15 10 30 19 33 19 4 0 12 5 19 10 7 6 31
23 53 38 129 84 206 135 307 199 61 40 117 77 124 83 7 5 17 10 23 10 5 0 10
4 10 8 0 5 16 17 35 28 19 10 35 22 35 25 0 4 15 16 33 28 57 36 70 46 87 62
9 8 80 64 158 123 192 146 304 245 520 463 188 189 245 257 369 441 40 59 79
116 87 128 16 22 40 65 89 154 17 30 33 57 37 60 4 3 9 14 13 25 3 11 22 58
42 105 20 47 40 94 45 105 22 50 62 191 86 300 27 117 27 129 31 535 4 331 7
419 18 436 13 20 24 22 138 25 146 5 157 10 157 79 l0 47 -45 6 c-25 4 -89 10
-142 13 -54 4 -104 11 -111 17 -10 8 -13 246 -11 1256 0 685 -2 1253 -6 1263
-9 23 -36 28 -145 28 -107 0 -331 22 -525 51 -71 10 -148 21 -170 23 -22 3
-103 18 -180 36 -77 17 -160 35 -185 39 -39 8 -77 18 -225 61 -16 4 -56 18
-87 29 -32 12 -69 21 -83 21 -14 0 -25 5 -25 10 0 6 -10 10 -23 10 -13 0 -32
7 -43 15 -10 8 -29 15 -41 15 -12 0 -24 4 -27 9 -3 4 -19 11 -35 14 -34 7
-224 87 -231 97 -3 4 -16 11 -30 15 -31 9 -146 58 -224 96 -33 16 -65 29 -72
29 -7 0 -14 4 -16 8 -4 10 -164 102 -177 102 -5 0 -11 4 -13 8 -1 5 -45 30
-96 57 -50 27 -101 57 -112 67 -10 10 -22 18 -26 18 -3 0 -38 23 -77 50 -39
28 -80 50 -91 49 -12 0 -68 -32 -126 -70z m179 -648 c6 -10 13 -145 17 -300 5
-212 10 -284 20 -292 7 -6 75 -15 151 -20 89 -5 162 -15 203 -28 36 -12 74
-21 85 -21 20 0 214 -58 290 -87 42 -16 170 -75 217 -99 14 -8 33 -14 42 -14
9 0 16 -5 16 -10 0 -6 8 -14 18 -17 9 -4 62 -35 117 -71 55 -35 109 -70 121
-77 11 -7 45 -36 76 -64 31 -28 59 -51 62 -51 4 0 29 -22 57 -50 27 -27 59
-50 69 -50 11 0 61 38 112 85 110 101 132 110 165 69 12 -16 23 -32 23 -36 0
-8 -56 -65 -68 -70 -11 -4 -132 -141 -132 -149 0 -4 27 -42 61 -85 113 -146
186 -258 244 -374 103 -206 142 -310 204 -551 36 -140 42 -177 52 -350 6 -107
8 -234 4 -284 -7 -104 -39 -307 -60 -380 -51 -181 -71 -242 -112 -335 -86
-200 -219 -426 -345 -589 -27 -34 -48 -67 -48 -75 0 -7 41 -53 90 -102 93 -90
104 -112 73 -146 -23 -26 -34 -23 -84 23 -66 62 -159 139 -167 139 -12 -1 -75
-51 -164 -130 -71 -62 -399 -280 -422 -280 -3 0 -44 -18 -91 -40 -47 -22 -91
-40 -98 -40 -7 0 -22 -7 -33 -15 -10 -8 -28 -15 -40 -15 -11 0 -24 -4 -30 -8
-14 -13 -92 -38 -179 -57 -44 -10 -93 -22 -109 -26 -16 -5 -44 -9 -62 -9 -18
0 -45 -5 -61 -11 -15 -6 -80 -14 -143 -17 l-115 -7 -8 -284 c-5 -179 -12 -290
-19 -298 -11 -14 -75 -18 -95 -5 -8 5 -12 87 -15 290 -2 238 -5 284 -18 292
-8 5 -40 10 -70 10 -30 0 -86 7 -125 15 -38 8 -85 15 -104 15 -18 0 -50 4 -70
9 -20 6 -79 20 -131 31 -312 70 -614 227 -905 471 -60 51 -111 98 -113 106 -6
24 -28 13 -92 -44 -34 -32 -73 -63 -85 -70 -12 -7 -30 -24 -39 -38 -19 -29
-66 -34 -86 -10 -23 27 -1 64 95 158 52 52 95 98 95 103 0 6 -18 28 -40 49
-22 22 -52 57 -67 80 -15 22 -36 50 -46 62 -11 12 -25 31 -31 41 -25 43 -71
119 -95 158 -27 42 -96 178 -117 229 -7 17 -24 58 -38 91 -14 34 -26 70 -26
80 0 11 -7 28 -15 38 -8 11 -15 34 -15 52 0 18 -4 36 -10 39 -5 3 -10 21 -10
38 -1 18 -7 43 -15 57 -8 14 -14 46 -15 72 0 26 -4 57 -9 70 -22 57 -33 302
-21 483 16 269 57 462 145 680 94 234 169 366 338 593 l77 104 -85 90 c-47 49
-93 101 -102 114 -15 23 -14 26 7 49 13 14 33 25 44 25 21 -1 76 -42 76 -58 0
-14 137 -122 155 -122 20 0 50 22 125 94 30 28 66 57 80 64 14 6 61 41 105 77
44 35 98 74 120 85 57 29 85 46 98 59 6 6 19 11 29 11 10 0 18 5 18 10 0 6 8
10 17 10 9 0 24 6 32 14 9 7 40 21 69 32 28 10 52 22 52 26 0 4 9 8 19 8 11 0
22 4 25 9 6 8 73 26 89 23 4 -1 7 3 7 8 0 6 10 10 23 10 12 1 33 7 47 15 14 8
39 14 57 15 17 0 35 5 38 10 3 6 21 10 39 10 18 0 52 6 77 14 49 15 163 32
280 42 42 3 82 10 89 14 21 13 28 104 29 361 1 130 4 239 8 242 3 4 26 7 49 7
32 0 46 -5 53 -19z"/>
<path d="M9699 12285 c-3 -2 -36 -12 -75 -20 -38 -9 -105 -24 -149 -34 -44 -9
-94 -25 -112 -34 -18 -9 -41 -17 -52 -17 -11 0 -23 -4 -26 -10 -3 -5 -16 -10
-29 -10 -21 0 -61 -15 -108 -41 -10 -5 -24 -9 -32 -9 -7 0 -19 -7 -26 -15 -7
-8 -21 -15 -31 -15 -11 0 -19 -4 -19 -9 0 -5 -11 -12 -25 -15 -14 -4 -25 -11
-25 -16 0 -6 -6 -10 -14 -10 -44 0 -302 -187 -400 -290 l-58 -61 198 -200
c110 -109 203 -209 208 -220 8 -17 3 -27 -28 -56 l-37 -35 -37 26 c-20 14
-118 107 -218 206 -100 99 -186 180 -193 180 -6 0 -21 -10 -32 -22 -63 -71
-112 -135 -163 -211 -65 -98 -196 -350 -196 -377 0 -10 -4 -21 -9 -24 -12 -8
-71 -187 -71 -215 0 -12 -4 -29 -9 -39 -12 -23 -40 -181 -46 -267 -3 -38 -8
-84 -11 -101 -4 -21 0 -36 11 -47 14 -15 46 -17 263 -16 136 1 272 4 302 7
l55 7 3 90 c3 98 12 115 62 115 40 0 50 -18 50 -90 0 -41 6 -79 16 -98 l15
-32 337 0 c185 0 469 3 630 7 264 6 294 8 302 24 18 33 23 158 10 229 -11 56
-11 145 -3 447 8 304 7 381 -3 392 -8 9 -47 17 -103 21 -49 4 -94 11 -100 15
-15 9 -14 80 2 92 6 6 50 13 96 16 47 4 89 11 95 17 7 7 12 132 14 367 2 308
1 359 -13 379 -15 23 -21 24 -114 24 -54 0 -100 -2 -102 -5z"/>
<path d="M10093 12279 c-20 -20 -18 -742 1 -758 7 -6 51 -14 97 -18 111 -8
121 -13 117 -66 -4 -49 -16 -54 -121 -56 -119 -2 -107 58 -107 -555 0 -459 2
-535 15 -546 11 -9 164 -12 647 -14 l633 -1 5 93 c4 82 8 96 28 112 17 14 29
17 52 10 48 -14 50 -17 50 -109 0 -64 4 -92 14 -100 20 -17 590 -11 607 6 10
10 10 35 0 120 -22 187 -32 248 -44 259 -4 4 -7 18 -7 30 0 25 -65 235 -85
274 -34 66 -65 139 -65 152 0 9 -7 21 -15 28 -8 7 -15 19 -15 26 0 8 -4 14 -8
14 -8 0 -42 68 -42 83 0 4 -28 48 -62 99 -73 106 -163 208 -185 208 -9 0 -90
-74 -182 -164 -171 -169 -246 -236 -263 -236 -17 0 -68 58 -68 77 0 12 75 95
183 204 101 101 192 197 202 212 l18 28 -34 36 c-36 38 -224 193 -233 193 -4
0 -46 25 -94 57 -93 60 -268 147 -367 182 -259 92 -357 115 -555 127 -80 4
-108 3 -117 -7z"/>
<path d="M11678 10109 c-82 -3 -151 -9 -155 -13 -4 -4 -10 -39 -14 -78 -7 -78
-21 -98 -70 -98 -41 0 -59 33 -59 105 0 33 -4 66 -8 73 -13 19 -1252 13 -1275
-7 -15 -12 -17 -62 -17 -526 0 -401 3 -515 13 -523 7 -6 48 -12 91 -13 126 -4
126 -4 126 -59 0 -26 -6 -52 -12 -58 -7 -5 -54 -12 -103 -14 -50 -2 -96 -7
-103 -12 -9 -5 -12 -95 -12 -379 0 -205 4 -377 8 -383 4 -6 17 -13 29 -16 28
-7 305 18 363 32 25 7 63 17 85 22 61 16 151 46 198 67 23 10 62 26 87 36 25
10 59 24 77 31 17 8 36 14 42 14 6 0 11 5 11 10 0 6 9 10 19 10 11 0 22 4 25
9 3 5 25 19 48 31 48 25 144 87 170 110 9 8 54 44 99 80 114 91 149 125 149
148 0 11 -19 37 -42 58 -133 117 -348 335 -353 357 -5 20 0 33 26 61 18 20 37
36 43 36 6 0 108 -94 226 -209 145 -141 219 -207 228 -202 35 20 228 315 294
451 40 80 75 154 79 165 4 11 18 50 32 86 14 36 30 87 36 115 5 27 17 78 26
114 8 36 20 92 25 125 42 270 56 243 -133 247 -84 2 -218 0 -299 -3z"/>
<path d="M7883 10103 c-22 -8 -16 -82 22 -283 8 -41 17 -88 19 -105 27 -169
70 -275 242 -597 25 -49 50 -88 55 -88 5 0 9 -7 9 -17 0 -9 7 -23 15 -32 8 -9
43 -51 76 -94 34 -44 68 -81 75 -84 7 -2 64 46 127 109 292 288 316 310 336
303 21 -6 71 -60 71 -75 0 -5 -93 -104 -206 -219 l-206 -210 21 -30 c39 -55
268 -241 296 -241 7 0 18 -6 24 -14 14 -16 130 -87 147 -90 7 -1 18 -7 26 -14
20 -16 125 -62 143 -62 8 0 15 -4 15 -9 0 -5 26 -17 58 -26 31 -8 75 -24 97
-35 23 -11 50 -17 61 -14 12 3 26 -1 33 -10 8 -10 29 -16 52 -16 21 0 50 -5
66 -11 65 -24 288 -44 329 -29 12 5 26 19 30 32 6 22 7 748 1 755 -2 2 -45 5
-96 7 -51 2 -96 7 -101 12 -14 15 -20 68 -10 84 6 10 36 17 100 21 50 4 97 12
103 18 17 17 24 265 14 501 -5 107 -6 258 -2 335 7 186 7 206 -6 222 -9 11
-122 13 -609 13 -328 0 -618 -3 -644 -6 l-46 -7 0 -78 c0 -86 -9 -99 -68 -99
-25 0 -30 5 -36 31 -3 17 -6 56 -6 85 0 42 -4 55 -19 64 -20 10 -583 14 -608
3z"/>
<path d="M6793 12665 c0 -27 2 -38 4 -22 2 15 2 37 0 50 -2 12 -4 0 -4 -28z"/>
<path d="M6793 11760 c0 -25 2 -35 4 -22 2 12 2 32 0 45 -2 12 -4 2 -4 -23z"/>
<path d="M13201 11704 c0 -11 3 -14 6 -6 3 7 2 16 -1 19 -3 4 -6 -2 -5 -13z"/>
<path d="M13205 11175 c0 -220 1 -309 2 -197 2 112 2 292 0 400 -1 108 -2 17
-2 -203z"/>
<path d="M6794 10965 c0 -66 1 -92 3 -57 2 34 2 88 0 120 -2 31 -3 3 -3 -63z"/>
<path d="M13283 10343 c9 -2 23 -2 30 0 6 3 -1 5 -18 5 -16 0 -22 -2 -12 -5z"/>
<path d="M6613 10185 c0 -38 2 -53 4 -32 2 20 2 52 0 70 -2 17 -4 1 -4 -38z"/>
<path d="M13383 10160 c0 -41 2 -58 4 -37 2 20 2 54 0 75 -2 20 -4 3 -4 -38z"/>
<path d="M6794 9845 c0 -77 2 -107 3 -67 2 40 2 103 0 140 -2 37 -3 4 -3 -73z"/>
<path d="M13204 9615 c0 -88 2 -123 3 -77 2 46 2 118 0 160 -1 42 -3 5 -3 -83z"/>
<path d="M7630 7676 c0 -2 8 -10 18 -17 15 -13 16 -12 3 4 -13 16 -21 21 -21
13z"/>
<path d="M7710 7596 c0 -2 8 -10 18 -17 15 -13 16 -12 3 4 -13 16 -21 21 -21
13z"/>
</g>
</svg>
